<svg width="225" height="248" viewBox="0 0 225 248" fill="none" xmlns="http://www.w3.org/2000/svg">
<path fill-rule="evenodd" clip-rule="evenodd" d="M9.99995 29.5C23.2013 46.7653 30.9625 56.3862 115 62C190.558 56.5735 216.431 49.9628 222.5 29.5C212.949 6.72207 181.437 3.57811 117 1C48.3371 1.39835 22.6676 6.74345 9.99995 29.5ZM117 12C65.4253 11.9481 47.3801 15.4935 33.9999 28C56.9397 39.2546 74.1167 43.1952 117 43.5C120.659 43.4138 124.181 43.3453 127.577 43.2792C159.44 42.659 180.245 42.2542 199.5 29.5C194.365 15.7824 172.48 12.9218 117 12Z" fill="#F9D61F"/>
<path d="M137.5 65C127.577 103.5 -11.5 131 3.99995 195C16.5 178.5 136 222 136 222C234 204.5 222.5 86.5 137.5 65Z" fill="#F9D61F"/>
<path d="M131.069 41C124.106 28.0044 111.44 21.163 99 41H131.069Z" fill="#B3503B"/>
<path fill-rule="evenodd" clip-rule="evenodd" d="M49 57.5C23.8669 67.4246 26.2877 85.6208 47.5 131C82.8223 147.882 91.4009 161.999 83 197H52.5L49 227C67.6467 236.658 78.8586 240.962 101 245.5C130.5 241 142.438 215.886 128.5 193C200.5 180 192 86.9999 113 101.5C111.1 92.2384 114.501 90.0826 119.454 86.9436C124.929 83.4734 132.3 78.8016 136.5 62L49 57.5ZM122 117.5C98.717 121.522 93.3529 130.092 92.5 152.5C100.275 170.548 106.898 177.099 126.5 176.5C143.533 172.217 149.673 166.223 153 147.5C150.99 127.504 144.916 120.351 122 117.5Z" fill="#B3503B"/>
<path d="M75.5 71.5C82.4563 101.822 79.0836 115.405 51.5 129.5L77.5 124.5C101.194 95.0287 130 88 167.5 115C163.034 100.632 153.915 96.077 130 92C138.833 85.2556 139.598 78.2243 133 59.5C125.981 71.8311 121.509 77.137 112 82L109.5 71.5C107.415 92.3747 101.903 98.6492 87 103.5L75.5 71.5Z" fill="black" fill-opacity="0.25"/>
<path d="M77.5 212.5C75.5 198 17 187 5.5 192C30.5 177 91.5 177 84 184C90.367 197.358 89.3315 203.886 77.5 212.5Z" fill="black" fill-opacity="0.25"/>
<path d="M145 200.5C158.719 192.682 162.989 186.407 167.5 173.5C157.392 184.66 149.363 188.868 130 192L136.5 220.5C175.81 215.008 191.5 198 201 173.5C182 202.395 158.5 207 145 200.5Z" fill="black" fill-opacity="0.25"/>
<path d="M58.5 145C29.1861 152.749 16.4671 162.376 5 195.5C3.45076 170.346 6.50073 156.794 36 136C54.993 138.638 59.0003 140.687 58.5 145Z" fill="white" fill-opacity="0.5"/>
<path d="M84 219.5C85.9615 211 100 203.5 97 190.5C104.338 204.7 108.1 213.308 104 223C98.5 236 81 232.5 84 219.5Z" fill="white" fill-opacity="0.5"/>
<path d="M63 211C58.5 207 59.4599 204.562 58.5 198C49 195.5 47.8907 216.589 49 225.5C52 215.5 56 214.5 63 211Z" fill="white" fill-opacity="0.5"/>
<path d="M81 138C71.0089 130.397 63.616 131.373 52 133.5C55.8481 127.7 60.1679 125.354 77 125C89.0712 107.232 99.068 101.968 122 100C152.939 102.597 165.721 106.41 171.5 122C138.5 97 98.5622 106.245 81 138Z" fill="white" fill-opacity="0.5"/>
<path d="M38 77C37.3442 88.0226 38.6055 94.1578 44.5 105C43.1177 101.825 45.9804 85.5097 47.5 77C49.0196 68.4903 38.829 65.1868 38 77Z" fill="white" fill-opacity="0.5"/>
<path d="M130.5 180.5C144.53 174.963 150.489 168.806 158 153C154.315 170.794 148.587 177.108 130.5 180.5Z" fill="white" fill-opacity="0.5"/>
<path d="M115.5 48.5C36.1923 48.5 16 31.5 31 18C5 29 31 55.5 115.5 55.5C186 55.5 233 39.5 205.5 21.5C221.5 35.5 196.5 48.5 115.5 48.5Z" fill="white" fill-opacity="0.5"/>
<path d="M100.5 147C100.5 175.5 147 180.5 144.5 145C144.5 172 104 173.5 100.5 147Z" fill="white" fill-opacity="0.5"/>
<path d="M115 136.5C109 133 104 141.833 109.5 145.5C115 149.167 121 140 115 136.5Z" fill="white" fill-opacity="0.5"/>
<path fill-rule="evenodd" clip-rule="evenodd" d="M135.5 223.5C163.644 219.545 210.5 209.5 207.5 140.5C206.5 87 154.5 68 141.5 63C213 54 225 42 225 28.5C225 4.00001 142.729 0.500005 111 0.5C46 0.499991 7.49998 11 7.49998 29.5C7.49998 44.0688 31.2771 53.3522 43 56C32.4423 62.3455 29.0749 67.0168 28 77.5C28 96.5 35 115 44 129.5C1.49998 145 -0.778628 183.294 1.49997 200.5C8.73179 195.699 10.5 193.5 21 192.5C21 192.5 34 199 50.5 199C46 208.5 44 221 45.5 225.5C46.5945 228.783 69.5 240.5 73 238.5C73.5 242.5 100.95 248.088 105.5 247.5C118.505 245.821 125.147 241.01 135.5 223.5ZM101 243C121.328 245.651 154.5 205.5 114 188.5C160.5 191 173.512 166.539 174 145C172.609 117.433 166.5 110.55 140 105.5C107.5 99.3066 94.5 104.078 78.5 128C68.5134 128.237 63.0483 129.116 53.5 132C91 141.5 89 182 84.5 198.5C82.5 200 55.5 199 55.5 199C52.0979 207.88 49 215 50.5 224.5C55.1708 228.679 73 237 75 233.5C74 238.5 95.1541 242.238 101 243ZM131.5 193.5C139.974 201.045 140.393 206.724 139 218C178 212 203 188.5 203 141.5C198.5 102 182.401 85.2031 137.5 69C133.041 80.1769 128.636 85.7348 115 93.5V98C150.593 98.3075 177.792 104 180 138C182.5 176.5 159.219 188.079 131.5 193.5ZM45.5 133C18.8877 148.056 7.96816 159.235 6.5 191.5C32.0748 182.323 49.0112 180.48 83 182C82.7155 154.45 75.2602 143.279 45.5 133ZM82.5 187.5C59.9193 186.87 48.3882 187.385 35 190.5C51.9502 193.802 61.7468 195.232 81.5 194.5C82.6591 190.783 83.5 189.5 82.5 187.5ZM76 123C64.1078 123.261 58.1707 124.53 48.5 128C27.8151 79.6154 30.3219 68 45.5 61C60.6781 54 81 70.5 85.5 111.5C80.5028 116.615 78.4373 119.126 76 123ZM70 61C81.845 74.6829 86.9372 84.0912 91 106.5C96.5875 102.284 100.561 100.671 109 99C110.624 85.5838 111.629 78.996 103.5 64C92.5 64 87.0335 63.28 70 61ZM109.5 64C114.565 71.5792 116 77.5 115 87C125.416 79.6837 131.151 73.9665 132.5 64C123.722 64.4756 118.722 64.5602 109.5 64ZM111 2.00001C48.5 2.00001 13 14 13 29.5C13 38 42 59 112.5 59C187.5 59 220 44 220 28.5C220 16 186 2.00001 111 2.00001Z" fill="black"/>
<path fill-rule="evenodd" clip-rule="evenodd" d="M115 44.5C68.0145 44.5 31 35 31 27.5C31 19 58 9.5 111 9.5C180 9.5 203 17.5 203 27.5C203 36 180 44.5 115 44.5ZM37.5 27.5C37.5 22 62 14 111 14C167.809 14 198 21.5 198 27.5C198 33.5 172.082 39.4955 132.5 40C129.305 32.7318 121.5 26.5 111 27.5C100.5 28.5 99.6451 33.6233 97.5 40C67.4091 39.7081 37.5 33 37.5 27.5ZM126.5 40C117.734 40.4954 112.705 40.5102 103.5 40C103.995 34.1343 106.478 32.7446 113.5 32.5C120.909 33.5495 124.001 34.9937 126.5 40Z" fill="black"/>
<path fill-rule="evenodd" clip-rule="evenodd" d="M89.5026 148.5C87.8957 126.5 111 115 121.503 115C134 115 156.787 124 155.003 148.5C153.364 171 134.505 179 121.503 179C108.5 179 91 169 89.5026 148.5ZM120.5 119.5C105.317 120.183 93.5018 132.03 94.5 148.5C95.5 165 107.018 174.35 121.503 175C138.5 175.763 151.5 162.21 151.5 147C151.5 129.5 137.5 118.735 120.5 119.5Z" fill="black"/>
<path d="M114 136C127.5 125.5 143.987 143.902 133 155.5C124 165 108 157.5 108.5 145C116.5 149 120.5 140 114 136Z" fill="black"/>
</svg>
