<svg width="230" height="250" viewBox="0 0 230 250" fill="none" xmlns="http://www.w3.org/2000/svg">
<ellipse cx="115" cy="230" rx="115" ry="20" fill="black" fill-opacity="0.3"/>
<path d="M158.089 207.756V221.056L183.638 222.621V207.756H158.089Z" fill="#FBD2D2"/>
<path d="M120.563 89.6242L91.0207 77.8892L19.1622 72.4128L3.1936 84.9302V161.599L12.7747 173.334L135.733 180.375V114.659L120.563 89.6242Z" fill="#FBD2D2"/>
<path d="M40.5 63.6926L31 73.7726L111.5 81.9326L133.5 104.013L135.5 179.52L71.5 177.6L77.5 188.16L91 192.813V226.893H117L121 216.333H128L130.5 235.053H156V207.213H185L186.5 230.253L215.5 228.333V199.053L226.5 191.373V55.5326L208 43.0526L160 50.2526V38.2526H177L178.5 15.2126L160 12.3326L147 21.4526L135.5 12.3326L102 5.13259L65 15.2126L58.5 7.53259L40.5 3.21259L25 7.53259L34.5 21.4526L52 26.2526L45.5 33.4526L40.5 63.6926Z" fill="#EDEBEB"/>
<path d="M111.537 208.843V228.975L119.853 221.785L121.321 204.05H116.429C113.235 204.05 111.537 205.714 111.537 208.843Z" fill="black" fill-opacity="0.3"/>
<path d="M156.543 203.091L159.478 205.488H181.981V213.157L159.478 214.595L158.011 228.975L150.184 236.645V208.364C150.184 205.009 153.119 203.091 156.543 203.091Z" fill="black" fill-opacity="0.3"/>
<path d="M212.312 153.72H218.671L222.096 81.8192H225.031V190.149L216.225 198.777L215.736 222.744L207.42 231.372V158.513C207.42 155.384 209.118 153.72 212.312 153.72Z" fill="black" fill-opacity="0.3"/>
<path d="M135.733 177.246L3.1936 161.599L14.3716 172.552L65.471 177.245L87.827 192.892H121.361L127.748 180.375H135.733V177.246Z" fill="black" fill-opacity="0.3"/>
<path d="M177.251 30.167C175.654 33.2963 172.46 33.2963 167.67 31.7317L175.654 39.555L177.251 30.167Z" fill="black" fill-opacity="0.3"/>
<path d="M63 20C61.5 21 61.5 23.5 57 18.5C52 9.00001 44 6.50001 25.5 9.50001L45.5 1L65 15L109.5 3.00001L147.5 20L167.5 12L175.5 18.5C166.5 17 162.092 16.9518 153.5 27C151 29.5 146.5 29 147 26.5L146.356 26.215C120.709 14.8689 103.165 7.10765 63 20Z" fill="white" fill-opacity="0.3"/>
<path d="M226.5 59C194.582 58.502 180.176 61.844 159 72.5L160 52.5L210 42C210 42 225.125 49.2456 226.5 59Z" fill="white" fill-opacity="0.3"/>
<path d="M131 107.5C114 87.5 94.5 85 4 89.5L12 72.5L115.5 83L131 107.5Z" fill="white" fill-opacity="0.3"/>
<path d="M33.534 119.353C31.9372 120.918 33.534 124.047 33.534 124.047L41.5183 133.435C41.5183 133.435 44.712 135 46.3089 133.435C47.9058 131.87 46.3089 128.741 46.3089 128.741L38.3246 119.353C38.3246 119.353 35.1309 117.788 33.534 119.353Z" fill="black"/>
<path d="M76.6492 133.435C76.6492 130.306 79.8429 130.306 79.8429 130.306H97.4083C97.4083 130.306 100.602 130.306 100.602 133.435C100.602 136.564 97.4083 136.564 97.4083 136.564H79.8429C79.8429 136.564 76.6492 136.564 76.6492 133.435Z" fill="black"/>
<path fill-rule="evenodd" clip-rule="evenodd" d="M33.534 124.047C33.534 124.047 31.9372 120.918 33.534 119.353C35.1309 117.788 38.3246 119.353 38.3246 119.353L46.3089 128.741C46.3089 128.741 47.9058 131.87 46.3089 133.435C44.712 135 41.5183 133.435 41.5183 133.435L33.534 124.047ZM79.8429 130.306C79.8429 130.306 76.6492 130.306 76.6492 133.435C76.6492 136.564 79.8429 136.564 79.8429 136.564H97.4083C97.4083 136.564 100.602 136.564 100.602 133.435C100.602 130.306 97.4083 130.306 97.4083 130.306H79.8429Z" fill="black"/>
<path d="M78.3659 66.1543C75.1722 66.1543 73.5753 64.5896 73.5753 61.4603C73.5753 58.331 75.1722 56.7663 78.3659 56.7663C81.5596 56.7663 83.1565 58.331 83.1565 61.4603C83.1565 64.5896 81.5596 66.1543 78.3659 66.1543Z" fill="black"/>
<path d="M111.9 59.8956C108.706 59.8956 107.109 61.4603 107.109 64.5896C107.109 67.719 108.706 69.2836 111.9 69.2836C115.094 69.2836 116.69 67.719 116.69 64.5896C116.69 61.4603 115.094 59.8956 111.9 59.8956Z" fill="black"/>
<path fill-rule="evenodd" clip-rule="evenodd" d="M33.534 124.047C33.534 124.047 31.9372 120.918 33.534 119.353C35.1309 117.788 38.3246 119.353 38.3246 119.353L46.3089 128.741C46.3089 128.741 47.9058 131.87 46.3089 133.435C44.712 135 41.5183 133.435 41.5183 133.435L33.534 124.047ZM79.8429 130.306C79.8429 130.306 76.6492 130.306 76.6492 133.435C76.6492 136.564 79.8429 136.564 79.8429 136.564H97.4083C97.4083 136.564 100.602 136.564 100.602 133.435C100.602 130.306 97.4083 130.306 97.4083 130.306H79.8429Z" fill="black"/>
<path fill-rule="evenodd" clip-rule="evenodd" d="M78.3659 66.1543C75.1722 66.1543 73.5753 64.5896 73.5753 61.4603C73.5753 58.331 75.1722 56.7663 78.3659 56.7663C81.5596 56.7663 83.1565 58.331 83.1565 61.4603C83.1565 64.5896 81.5596 66.1543 78.3659 66.1543ZM111.9 59.8956C108.706 59.8956 107.109 61.4603 107.109 64.5896C107.109 67.719 108.706 69.2836 111.9 69.2836C115.094 69.2836 116.69 67.719 116.69 64.5896C116.69 61.4603 115.094 59.8956 111.9 59.8956ZM33.534 124.047C33.534 124.047 31.9372 120.918 33.534 119.353C35.1309 117.788 38.3246 119.353 38.3246 119.353L46.3089 128.741C46.3089 128.741 47.9058 131.87 46.3089 133.435C44.712 135 41.5183 133.435 41.5183 133.435L33.534 124.047ZM79.8429 130.306C79.8429 130.306 76.6492 130.306 76.6492 133.435C76.6492 136.564 79.8429 136.564 79.8429 136.564H97.4083C97.4083 136.564 100.602 136.564 100.602 133.435C100.602 130.306 97.4083 130.306 97.4083 130.306H79.8429Z" fill="black"/>
<path fill-rule="evenodd" clip-rule="evenodd" d="M33.534 119.353C31.9372 120.918 33.534 124.047 33.534 124.047L41.5183 133.435C41.5183 133.435 44.712 135 46.3089 133.435C47.9058 131.87 46.3089 128.741 46.3089 128.741L38.3246 119.353C38.3246 119.353 35.1309 117.788 33.534 119.353ZM76.6492 133.435C76.6492 130.306 79.8429 130.306 79.8429 130.306H97.4083C97.4083 130.306 100.602 130.306 100.602 133.435C100.602 136.564 97.4083 136.564 97.4083 136.564H79.8429C79.8429 136.564 76.6492 136.564 76.6492 133.435ZM73.5753 61.4603C73.5753 64.5896 75.1722 66.1543 78.3659 66.1543C81.5596 66.1543 83.1565 64.5896 83.1565 61.4603C83.1565 58.331 81.5596 56.7663 78.3659 56.7663C75.1722 56.7663 73.5753 58.331 73.5753 61.4603ZM107.109 64.5896C107.109 61.4603 108.706 59.8956 111.9 59.8956C115.094 59.8956 116.69 61.4603 116.69 64.5896C116.69 67.719 115.094 69.2836 111.9 69.2836C108.706 69.2836 107.109 67.719 107.109 64.5896Z" fill="black"/>
<path fill-rule="evenodd" clip-rule="evenodd" d="M0.119911 90.4472C0.119911 79.4946 9.3683 69.3565 20.5463 69.3565H29.3519C35.7393 67.7918 38.6466 59.6704 38.6466 54.9764C38.6466 42.4434 43.2801 31.7423 46.4738 28.6129C41.5818 28.1336 34.5841 25.9635 30.1304 20.9762C26.9048 17.0857 22.5031 10.8774 22.5031 8.00141C22.5031 2.24948 35.2222 -1.10588 45.4954 0.332138C53.3225 1.2908 60.7804 3.20814 65.6724 11.3568C73.4995 8.00149 89.6431 1.77013 105.787 2.24947C135.628 2.7288 146.879 17.5882 146.879 17.5882C148.836 14.7122 156.054 9.4395 166.447 9.91884C179.046 10.8775 181.981 11.8362 183.08 25.2576C183.938 37.7203 177.09 48.2657 166.327 38.7726L162.414 41.0757L163.881 46.8277C171.219 44.431 188.83 40.117 204.485 39.6376C222.585 38.679 230.901 52.1004 229.923 64.5631C229.434 72.2325 228.944 78.9432 228.455 81.8192L228.944 181.521C228.944 194.942 223.563 199.256 218.671 202.132V222.744C218.671 228.975 212.801 234.248 206.441 234.248H194.211C186.384 234.248 181.981 229.455 181.981 225.62H166.327C166.327 225.62 161.435 225.62 160.457 223.703V228.975C160.457 235.207 155.076 240 148.716 240H135.997C129.637 240 124.745 235.207 124.745 228.975V219.389C123.278 219.389 122.789 219.389 122.789 220.827C122.789 227.058 116.918 232.81 110.559 232.81H97.8395C91.4799 232.81 86.0988 227.085 86.0988 220.827V194.463C81.2068 194.463 67.0201 185.835 67.0201 181.042L17.6111 177.207C8.31636 175.769 0 169.113 0 156.596L0.119911 90.4472ZM6.50734 156.905V91.1889C6.50734 83.3656 12.8948 75.5423 20.8791 75.5423L89.5439 81.0186C119.884 87.2773 129.465 100.577 132.659 116.224L133.457 174.116C133.457 176.463 132.659 177.246 130.264 177.246C112.698 177.246 17.6111 170.976 17.6111 170.976C8.31636 169.538 6.50734 160.035 6.50734 156.905ZM76.804 181.042L123.278 183.438C123.278 185.356 123.278 186.314 122.789 187.273C121.81 188.711 119.364 188.711 113.494 189.67H99.3071C94.4151 189.67 78.2716 186.314 76.804 181.042ZM160.457 210.761H180.025V217.951C180.025 219.868 179.046 220.347 177.09 220.347H163.392C161.435 220.347 160.457 219.868 160.457 217.951V210.761ZM137.45 183.504C148.628 181.94 155.015 172.552 157.41 167.858C158.209 163.164 155.015 160.817 152.62 162.381C152.62 162.381 147.031 174.116 139.845 175.681L139.046 113.094C137.45 93.5359 114.295 76.3246 94.3345 74.7599L38.6466 70.7945C43.4372 66.1005 45.0062 61.2351 45.0062 54.9764C44.3674 39.9556 51.8549 30.5303 55.7685 27.1749L51.8549 22.3816C42.071 25.7369 33.2654 14.7122 29.3519 8.96018C31.3086 7.04284 36.8097 6.56344 43.1693 6.56344C59.3128 6.56344 62.7372 15.6709 61.7588 21.4229C66.6508 18.5469 82.7943 8.90328 105.787 8.96017C130.736 9.02189 141.987 21.4229 146.879 27.1749C153.239 16.6295 161.066 16.1502 165.958 16.1502C176.231 16.1502 176.111 21.4229 176.6 26.2162C176.6 26.2162 177.209 34.3649 174.274 36.2823C172.807 35.803 169.382 31.9683 169.382 31.9683C167.425 31.4889 166.936 31.4889 165.469 31.9683L154.217 38.7726C158.209 44.2489 158.397 61.0909 156.612 64.5896C155.015 67.719 151.821 73.9776 157.41 73.9776C162.999 73.9776 164.37 60.7284 164.37 53.5384C198.614 44.431 209.377 44.1115 218.671 50.183C226.009 54.9764 224.225 72.9528 222.096 81.8192L223.563 181.521C223.563 186.314 223.563 193.025 218.671 193.025V153.72C214.269 153.72 212.312 155.637 212.312 158.513V222.744C212.312 225.62 209.377 228.017 205.952 228.017H194.211C190.787 228.017 188.341 225.62 188.341 222.265V200.694C187.363 202.132 183.938 204.05 159.968 204.05C158.011 202.612 153.999 201.439 154.097 208.364V228.975C154.097 231.851 152.14 233.769 148.716 233.769H135.997C133.062 233.769 131.105 232.331 131.105 228.975V210.281C131.105 205.488 131.105 204.05 126.213 204.05H121.321C118.47 204.027 116.496 206.603 116.69 210.103L116.429 220.827C116.429 224.661 113.983 226.579 110.559 226.579H97.8395C94.4151 226.579 92.9475 224.182 92.9475 220.827V195.901L113.497 196.021C124.675 196.021 130.264 192.892 130.264 183.504H137.45ZM78.3659 66.1543C75.1722 66.1543 73.5753 64.5896 73.5753 61.4603C73.5753 58.331 75.1722 56.7663 78.3659 56.7663C81.5596 56.7663 83.1565 58.331 83.1565 61.4603C83.1565 64.5896 81.5596 66.1543 78.3659 66.1543ZM111.9 59.8956C108.706 59.8956 107.109 61.4603 107.109 64.5896C107.109 67.719 108.706 69.2836 111.9 69.2836C115.094 69.2836 116.69 67.719 116.69 64.5896C116.69 61.4603 115.094 59.8956 111.9 59.8956Z" fill="black"/>
<path d="M179.125 196.105L177.889 142.369L214.678 181.557L198.994 183.802L212.156 215.97L205.045 218.879L191.884 186.712L179.125 196.105Z" fill="black" stroke="white" stroke-width="2"/>
<path d="M200.898 128.561L186.709 134.367M151.237 148.882L165.426 143.076M171.68 127.999L165.83 113.703M180.237 128.671L186.491 113.594M171.898 148.773L165.644 163.85M151.019 128.109L166.048 134.477M186.087 142.967L201.116 149.335" stroke="black" stroke-width="3"/>
</svg>
